<?xml version="1.0" encoding="utf-8"?>
<svg
  version="1.0"
  xmlns="http://www.w3.org/2000/svg"
  width="100%"
  height="100%"
  viewBox="0 0 100 84">
  <path transform="translate(0,84) scale(0.1,-0.1)" stroke="none" d="M118 773 c-43 -13 -78 -28 -78 -32 0 -4 68 -74 150 -155 83 -81 150 -150 150 -154 0 -5 -21 -28 -46 -52 -43 -42 -45 -48 -40 -86 5 -38 2 -43 -44 -89 -39 -38 -53 -46 -62 -37 -19 19 -34 14 -47 -15 -11 -24 -9 -29 30 -69 42 -43 57 -46 90 -17 9 7 22 11 30 8 8 -2 31 10 51 28 31 26 38 39 40 74 3 47 5 48 43 31 23 -10 29 -8 58 20 42 41 72 41 114 0 29 -28 35 -30 58 -20 38 17 40 16 43 -31 2 -35 9 -48 40 -74 42 -37 47 -38 86 -18 36 19 36 19 33 -6 -3 -35 19 -33 60 4 32 30 35 37 24 50 -7 9 -19 13 -28 10 -9 -4 -36 15 -74 53 -56 55 -58 60 -53 96 6 35 3 42 -40 88 -25 27 -46 53 -46 57 0 4 68 72 150 151 83 79 150 147 150 152 0 5 -38 20 -85 35 l-86 26 -70 -63 c-39 -35 -78 -62 -87 -61 -9 1 -40 -21 -69 -48 -28 -27 -58 -49 -65 -49 -7 0 -36 24 -66 53 -35 34 -55 48 -60 40 -5 -8 -33 12 -82 57 -41 38 -79 69 -85 69 -5 -1 -45 -12 -87 -26z m202 -592 c0 -21 -53 -71 -74 -71 -38 0 -37 12 2 46 35 32 72 44 72 25z m432 -25 c39 -34 40 -46 2 -46 -21 0 -74 50 -74 71 0 19 37 7 72 -25z"/>
</svg>
