<?xml version="1.0" encoding="UTF-8" standalone="no"?>
<svg
  xmlns:xlink="http://www.w3.org/1999/xlink"
  viewbox="0 0 93 93"
  height="100%"
  width="100%"
  xmlns="http://www.w3.org/2000/svg">
  <g transform="matrix(1.0, 0.0, 0.0, 1.0, 46.4, 90)">
    <path d="M23.2 -71.75 L23.5 -79.55 25.25 -81.15 38.45 -81.15 43.6 -75.6 42.85 -66.75 37.0 -61.4 24.25 -61.4 23.5 -62.25 22.85 -62.9 23.05 -68.3 23.2 -71.75 23.05 -68.3 22.85 -62.9 23.5 -62.25 17.35 -59.15 15.35 -64.7 14.65 -66.6 8.9 -67.1 9.95 -68.7 15.95 -68.7 17.05 -67.35 19.25 -68.4 19.75 -69.95 23.2 -71.75 M24.4 -56.1 L25.75 -57.35 35.8 -57.35 39.85 -53.1 39.55 -48.45 36.35 -47.45 32.15 -46.35 30.2 -45.75 29.3 -45.35 29.05 -42.6 26.05 -41.85 24.25 -41.45 22.45 -42.9 22.55 -44.6 22.85 -50.0 23.05 -54.75 23.05 -54.9 24.4 -56.1 M36.05 -43.95 L36.5 -44.0 36.55 -44.0 37.3 -44.0 39.5 -43.8 40.3 -43.95 40.6 -43.95 40.9 -43.95 42.05 -43.65 42.65 -43.1 Q43.3 -42.5 43.3 -41.6 L43.9 -40.85 Q44.45 -40.35 44.65 -39.65 L45.1 -38.7 45.1 -38.4 Q45.25 -38.3 45.5 -38.15 L45.7 -37.95 Q46.55 -37.1 46.45 -36.0 46.3 -34.95 45.35 -34.1 L44.75 -33.75 44.6 -33.45 44.3 -32.75 43.1 -31.25 42.95 -31.1 42.35 -30.65 42.2 -30.2 41.45 -29.15 Q40.55 -28.4 39.35 -28.4 L38.45 -28.5 38.3 -28.55 38.0 -28.5 36.2 -28.35 35.45 -28.35 34.45 -28.4 34.0 -28.55 33.8 -28.4 32.95 -28.4 Q31.75 -28.4 31.0 -29.15 L30.4 -29.85 30.35 -30.2 30.25 -30.65 30.05 -30.8 27.85 -30.8 25.75 -32.45 25.85 -33.3 24.4 -34.1 24.65 -37.95 26.05 -38.1 26.15 -39.45 26.8 -39.9 27.4 -40.4 29.75 -40.4 30.95 -41.6 31.0 -41.75 31.3 -42.45 31.45 -42.65 31.85 -43.1 32.6 -43.65 34.0 -43.95 34.4 -43.95 34.85 -43.85 35.05 -43.8 35.15 -43.8 35.5 -43.85 36.05 -43.95 M-22.55 -44.6 L-22.45 -42.9 -24.25 -41.45 -26.05 -41.85 -29.05 -42.6 -29.3 -45.35 -30.2 -45.75 -32.15 -46.35 -36.25 -47.45 -39.5 -48.45 -39.85 -53.1 -35.8 -57.35 -25.75 -57.35 -24.35 -56.1 -23.0 -54.9 -23.0 -54.75 -22.75 -50.0 -22.55 -44.6 M-26.8 -39.9 L-26.15 -39.45 -26.05 -38.1 -24.65 -37.95 -24.4 -34.1 -25.85 -33.3 -25.75 -32.45 -27.85 -30.8 -30.05 -30.8 -30.25 -30.65 -30.35 -30.2 -30.5 -29.85 -31.0 -29.15 Q-31.75 -28.4 -32.95 -28.4 L-33.7 -28.4 -34.0 -28.55 -34.45 -28.4 -35.45 -28.35 -36.2 -28.35 -38.0 -28.5 -38.35 -28.55 Q-38.35 -28.5 -38.45 -28.5 L-39.35 -28.4 Q-40.55 -28.4 -41.45 -29.15 L-42.2 -30.2 -42.35 -30.65 -42.95 -31.1 -43.1 -31.25 -44.3 -32.75 -44.6 -33.45 -44.75 -33.75 -45.35 -34.1 Q-46.3 -34.95 -46.4 -36.0 -46.55 -37.1 -45.7 -37.95 L-45.5 -38.15 -45.1 -38.4 -45.05 -38.7 -44.65 -39.65 -44.0 -40.85 -43.3 -41.6 Q-43.3 -42.5 -42.65 -43.1 L-41.95 -43.65 -40.9 -43.95 -40.55 -43.95 -40.3 -43.95 -39.5 -43.8 -37.3 -44.0 -36.55 -44.0 -36.4 -44.0 -36.05 -43.95 -35.45 -43.85 -35.15 -43.8 -35.05 -43.8 -34.75 -43.85 -34.4 -43.95 -34.0 -43.95 -32.5 -43.65 -31.85 -43.1 -31.45 -42.65 -31.25 -42.45 -30.95 -41.75 -30.95 -41.6 -29.75 -40.4 -27.4 -40.4 -26.8 -39.9 M-17.35 -59.15 L-23.5 -62.25 -24.25 -61.4 -37.0 -61.4 -42.85 -66.75 -43.6 -75.6 -38.45 -81.15 -25.25 -81.15 -23.5 -79.55 -23.2 -71.75 -19.75 -69.95 -19.25 -68.4 -17.05 -67.35 -15.95 -68.7 -9.95 -68.7 -8.9 -67.1 -14.65 -66.6 -15.35 -64.7 -18.2 -66.05 -15.35 -64.7 -17.35 -59.15 M25.4 -78.9 L25.85 -79.35 37.4 -79.35 41.75 -74.75 41.15 -67.55 36.25 -63.15 25.0 -63.15 24.65 -63.6 25.4 -78.9 24.65 -63.6 25.0 -63.15 36.25 -63.15 41.15 -67.55 41.75 -74.75 37.4 -79.35 25.85 -79.35 25.4 -78.9 M30.05 -77.3 Q29.6 -77.75 28.85 -77.75 28.0 -77.75 27.5 -77.3 26.9 -76.7 26.9 -75.95 26.8 -75.2 27.35 -74.7 L27.95 -74.25 28.6 -74.15 29.3 -74.25 29.95 -74.7 Q30.5 -75.2 30.55 -75.95 30.65 -76.7 30.05 -77.3 M31.75 -75.95 Q31.75 -75.2 32.3 -74.7 32.75 -74.15 33.55 -74.15 34.3 -74.15 34.85 -74.7 35.45 -75.2 35.5 -75.95 L35.05 -77.3 Q34.55 -77.75 33.85 -77.75 32.95 -77.75 32.45 -77.3 31.85 -76.7 31.75 -75.95 M38.05 -75.35 L37.15 -74.85 37.1 -74.75 Q36.65 -74.25 36.55 -73.5 36.55 -72.8 36.95 -72.3 L37.0 -72.2 Q37.4 -71.9 37.75 -71.85 L38.3 -71.75 Q39.1 -71.75 39.65 -72.2 40.3 -72.8 40.3 -73.5 40.4 -74.3 39.8 -74.85 39.4 -75.45 38.6 -75.45 L38.05 -75.35 M17.05 -67.35 L18.1 -66.05 15.35 -64.7 18.1 -66.05 17.05 -67.35 M36.85 -69.95 L36.8 -69.95 Q36.35 -69.35 36.25 -68.7 36.25 -68.1 36.55 -67.5 L36.7 -67.5 37.4 -66.95 38.0 -66.9 Q38.75 -66.9 39.25 -67.5 39.85 -68.0 39.95 -68.7 40.0 -69.45 39.5 -69.95 39.05 -70.5 38.2 -70.5 L37.7 -70.5 36.85 -69.95 M34.7 -72.35 Q34.25 -72.9 33.5 -72.9 32.65 -72.9 32.15 -72.35 31.55 -71.9 31.45 -71.1 31.45 -70.4 31.9 -69.8 32.45 -69.3 33.25 -69.3 34.0 -69.3 34.55 -69.8 35.15 -70.4 35.2 -71.1 35.2 -71.9 34.7 -72.35 M31.85 -67.65 Q31.25 -67.05 31.25 -66.35 31.15 -65.6 31.7 -65.15 32.15 -64.5 32.95 -64.5 33.7 -64.5 34.15 -65.15 34.85 -65.6 34.9 -66.35 34.9 -67.05 34.4 -67.65 33.95 -68.1 33.2 -68.1 32.35 -68.1 31.85 -67.65 M29.8 -72.35 L29.6 -72.6 28.55 -72.9 Q27.7 -72.9 27.2 -72.35 26.65 -71.9 26.65 -71.1 26.6 -70.4 27.1 -69.8 27.55 -69.3 28.4 -69.3 29.0 -69.3 29.45 -69.65 L29.65 -69.8 Q30.25 -70.4 30.25 -71.1 30.35 -71.9 29.8 -72.35 M28.3 -68.1 Q27.5 -68.1 26.95 -67.65 26.45 -67.05 26.35 -66.35 26.3 -65.6 26.8 -65.15 27.35 -64.5 28.1 -64.5 28.7 -64.5 29.15 -64.95 L29.45 -65.15 Q29.95 -65.6 29.95 -66.35 30.05 -67.05 29.6 -67.65 L29.35 -67.8 28.3 -68.1 M18.1 -66.05 L23.05 -68.3 18.1 -66.05 M36.35 -47.45 L36.55 -51.5 33.5 -54.75 23.05 -54.75 33.5 -54.75 36.55 -51.5 36.35 -47.45 M43.3 -41.6 L43.3 -41.55 43.25 -41.25 43.25 -40.85 Q43.1 -39.95 42.35 -39.2 41.35 -38.4 40.15 -38.4 L39.25 -38.55 Q38.6 -38.75 38.15 -39.2 37.3 -40.1 37.4 -41.25 37.55 -42.05 38.0 -42.65 L38.35 -43.1 39.1 -43.65 39.25 -43.7 39.5 -43.8 39.25 -43.7 39.1 -43.65 38.35 -43.1 38.0 -42.65 Q37.55 -42.05 37.4 -41.25 37.3 -40.1 38.15 -39.2 38.6 -38.75 39.25 -38.55 L40.15 -38.4 Q41.35 -38.4 42.35 -39.2 43.1 -39.95 43.25 -40.85 L43.25 -41.25 43.3 -41.55 43.3 -41.6 M35.05 -42.35 L34.55 -42.65 33.95 -42.75 33.4 -42.65 32.75 -42.3 Q32.3 -41.9 32.2 -41.25 32.2 -40.55 32.65 -40.05 33.05 -39.65 33.7 -39.65 34.45 -39.65 34.9 -40.05 L35.0 -40.05 Q35.5 -40.55 35.5 -41.25 35.6 -41.9 35.15 -42.3 L35.05 -42.35 M35.15 -43.8 L35.5 -43.65 36.1 -43.1 36.5 -42.65 Q36.85 -42.05 36.8 -41.25 36.7 -40.1 35.8 -39.2 L34.75 -38.6 33.7 -38.4 Q32.45 -38.4 31.6 -39.2 30.85 -40.1 30.95 -41.25 L30.95 -41.6 30.95 -41.25 Q30.85 -40.1 31.6 -39.2 32.45 -38.4 33.7 -38.4 L34.75 -38.6 35.8 -39.2 Q36.7 -40.1 36.8 -41.25 36.85 -42.05 36.5 -42.65 L36.1 -43.1 35.5 -43.65 35.15 -43.8 M30.05 -30.8 L29.6 -31.25 29.35 -31.7 Q28.7 -32.6 28.4 -33.75 L28.4 -33.8 Q29.0 -33.35 29.9 -33.35 31.1 -33.35 32.0 -34.1 32.95 -34.95 33.05 -36.0 L32.8 -37.1 32.3 -37.95 31.7 -38.4 30.5 -38.75 30.2 -38.75 Q29.5 -38.75 28.85 -38.4 L28.6 -38.3 29.45 -39.9 29.75 -40.4 29.45 -39.9 28.6 -38.3 28.85 -38.4 Q29.5 -38.75 30.2 -38.75 L30.5 -38.75 31.7 -38.4 32.3 -37.95 32.8 -37.1 33.05 -36.0 Q32.95 -34.95 32.0 -34.1 31.1 -33.35 29.9 -33.35 29.0 -33.35 28.4 -33.8 L28.4 -33.75 Q28.7 -32.6 29.35 -31.7 L29.6 -31.25 30.05 -30.8 M38.95 -37.95 L38.35 -38.4 37.3 -38.75 37.0 -38.75 35.6 -38.4 Q35.2 -38.25 34.9 -37.95 L34.7 -37.8 34.15 -37.1 Q33.85 -36.6 33.85 -36.0 33.8 -35.0 34.45 -34.25 L34.55 -34.1 Q35.45 -33.35 36.65 -33.35 37.85 -33.35 38.65 -34.1 L38.95 -34.25 Q39.65 -35.0 39.7 -36.0 L39.55 -37.1 39.2 -37.7 38.95 -37.95 M39.55 -42.45 L39.25 -42.3 Q38.8 -41.9 38.75 -41.25 38.65 -40.55 39.1 -40.2 L39.35 -39.9 Q39.8 -39.65 40.25 -39.65 40.9 -39.65 41.35 -40.05 41.95 -40.55 42.05 -41.25 42.05 -41.9 41.6 -42.3 L40.55 -42.75 39.55 -42.45 M28.6 -38.3 L28.15 -37.95 27.65 -37.5 27.55 -37.35 27.5 -37.1 27.1 -36.0 Q27.1 -35.25 27.5 -34.55 L27.7 -34.35 27.95 -34.1 28.4 -33.8 27.95 -34.1 27.7 -34.35 27.5 -34.55 Q27.1 -35.25 27.1 -36.0 L27.5 -37.1 27.55 -37.35 27.65 -37.5 28.15 -37.95 28.6 -38.3 M31.3 -37.1 Q30.85 -37.55 30.1 -37.55 29.6 -37.55 29.0 -37.1 28.55 -36.75 28.45 -36.15 28.4 -35.4 28.85 -35.0 29.3 -34.55 30.05 -34.55 30.7 -34.55 31.25 -35.0 31.7 -35.4 31.75 -36.0 31.75 -36.65 31.4 -37.1 L31.3 -37.1 M38.3 -28.55 L38.05 -28.65 Q37.7 -28.8 37.3 -29.1 36.8 -29.6 36.65 -30.2 L36.65 -30.95 Q36.7 -32.1 37.6 -32.85 L38.15 -33.2 38.3 -33.3 38.8 -33.5 39.7 -33.75 40.0 -33.6 41.15 -33.3 41.3 -33.2 41.75 -32.85 42.35 -31.8 42.4 -31.25 42.4 -30.95 42.35 -30.65 42.4 -30.95 42.4 -31.25 42.35 -31.8 41.75 -32.85 41.3 -33.2 41.15 -33.3 40.0 -33.6 39.7 -33.75 38.8 -33.5 38.3 -33.3 38.15 -33.2 37.6 -32.85 Q36.7 -32.1 36.65 -30.95 L36.65 -30.2 Q36.8 -29.6 37.3 -29.1 37.7 -28.8 38.05 -28.65 L38.3 -28.55 M30.25 -30.65 L30.25 -30.8 30.25 -30.95 Q30.35 -32.1 31.15 -32.85 L31.75 -33.2 31.85 -33.3 33.35 -33.75 33.7 -33.6 34.4 -33.45 34.7 -33.3 34.85 -33.2 35.35 -32.85 Q36.2 -32.1 36.05 -30.95 L35.9 -30.2 35.15 -29.15 34.85 -28.95 34.0 -28.55 34.85 -28.95 35.15 -29.15 35.9 -30.2 36.05 -30.95 Q36.2 -32.1 35.35 -32.85 L34.85 -33.2 34.7 -33.3 34.4 -33.45 33.7 -33.6 33.35 -33.75 31.85 -33.3 31.75 -33.2 31.15 -32.85 Q30.35 -32.1 30.25 -30.95 L30.25 -30.8 30.25 -30.65 M41.15 -30.95 Q41.2 -31.55 40.75 -32.1 40.4 -32.55 39.65 -32.55 L38.75 -32.25 38.45 -32.1 Q38.0 -31.55 37.9 -30.95 37.9 -30.6 38.05 -30.2 L38.3 -29.9 38.5 -29.75 38.95 -29.6 39.4 -29.55 Q40.1 -29.55 40.55 -29.9 L40.85 -30.2 41.15 -30.75 41.15 -30.95 M34.3 -32.1 Q33.95 -32.55 33.25 -32.55 32.6 -32.55 32.15 -32.1 31.6 -31.55 31.55 -30.95 31.55 -30.6 31.7 -30.2 L31.9 -29.9 Q32.35 -29.55 33.05 -29.55 33.8 -29.55 34.15 -29.9 L34.25 -29.9 34.55 -30.2 34.85 -30.95 Q34.85 -31.55 34.3 -32.0 L34.3 -32.1 M25.85 -33.3 L26.05 -38.1 25.85 -33.3 M44.75 -33.75 L43.9 -33.45 43.6 -33.35 43.3 -33.35 Q42.1 -33.35 41.2 -34.1 40.45 -34.95 40.55 -36.15 L40.9 -37.1 41.5 -37.95 42.35 -38.4 43.75 -38.75 44.0 -38.75 44.35 -38.7 44.6 -38.6 45.1 -38.4 44.6 -38.6 44.35 -38.7 44.0 -38.75 43.75 -38.75 42.35 -38.4 41.5 -37.95 40.9 -37.1 40.55 -36.15 Q40.45 -34.95 41.2 -34.1 42.1 -33.35 43.3 -33.35 L43.6 -33.35 43.9 -33.45 44.75 -33.75 M44.75 -37.2 L44.65 -37.35 43.7 -37.55 Q42.95 -37.55 42.4 -37.1 41.9 -36.75 41.8 -36.15 41.8 -35.4 42.25 -35.0 42.7 -34.55 43.4 -34.55 L44.3 -34.8 44.45 -34.85 44.6 -35.0 Q45.1 -35.4 45.1 -36.0 45.25 -36.65 44.8 -37.1 L44.75 -37.1 44.75 -37.2 M-30.1 -77.3 Q-30.65 -76.7 -30.55 -75.95 -30.5 -75.2 -29.95 -74.7 L-29.3 -74.25 -28.55 -74.15 -27.95 -74.25 -27.35 -74.7 Q-26.8 -75.2 -26.9 -75.95 -26.9 -76.7 -27.5 -77.3 -28.0 -77.75 -28.85 -77.75 L-30.1 -77.3 M-31.75 -75.95 Q-31.85 -76.7 -32.45 -77.3 -32.95 -77.75 -33.8 -77.75 -34.55 -77.75 -35.0 -77.3 -35.6 -76.7 -35.45 -75.95 -35.45 -75.2 -34.85 -74.7 -34.3 -74.15 -33.55 -74.15 -32.75 -74.15 -32.3 -74.7 -31.75 -75.2 -31.75 -75.95 M-38.0 -75.35 L-38.6 -75.45 Q-39.35 -75.45 -39.85 -74.85 -40.4 -74.3 -40.3 -73.5 -40.25 -72.8 -39.65 -72.2 -39.1 -71.75 -38.3 -71.75 L-37.75 -71.85 Q-37.4 -71.9 -37.0 -72.2 L-36.95 -72.3 Q-36.55 -72.8 -36.55 -73.5 -36.65 -74.25 -37.1 -74.75 L-37.15 -74.85 -38.0 -75.35 M-17.05 -67.35 L-18.2 -66.05 -23.0 -68.3 -23.2 -71.75 -23.0 -68.3 -18.2 -66.05 -17.05 -67.35 M-25.4 -78.9 L-25.75 -79.35 -37.45 -79.35 -41.65 -74.75 -41.15 -67.55 -36.25 -63.15 -25.0 -63.15 -24.65 -63.6 -25.4 -78.9 -24.65 -63.6 -25.0 -63.15 -36.25 -63.15 -41.15 -67.55 -41.65 -74.75 -37.45 -79.35 -25.75 -79.35 -25.4 -78.9 M-28.25 -68.1 L-29.3 -67.8 -29.5 -67.65 Q-30.05 -67.05 -29.95 -66.35 -29.95 -65.6 -29.35 -65.15 L-29.15 -64.95 Q-28.75 -64.5 -28.1 -64.5 -27.35 -64.5 -26.8 -65.15 -26.35 -65.6 -26.35 -66.35 -26.45 -67.05 -26.95 -67.65 -27.5 -68.1 -28.25 -68.1 M-29.8 -72.35 Q-30.35 -71.9 -30.25 -71.1 -30.25 -70.4 -29.65 -69.8 L-29.45 -69.65 Q-29.0 -69.3 -28.3 -69.3 -27.55 -69.3 -27.05 -69.8 -26.6 -70.4 -26.6 -71.1 -26.65 -71.9 -27.2 -72.35 -27.7 -72.9 -28.55 -72.9 L-29.6 -72.6 -29.8 -72.35 M-23.5 -62.25 L-22.75 -62.9 -23.0 -68.3 -22.75 -62.9 -23.5 -62.25 M-31.85 -67.65 Q-32.35 -68.1 -33.2 -68.1 L-34.4 -67.65 Q-34.9 -67.05 -34.85 -66.35 -34.75 -65.6 -34.25 -65.15 -33.7 -64.5 -32.95 -64.5 -32.15 -64.5 -31.7 -65.15 -31.15 -65.6 -31.15 -66.35 -31.25 -67.05 -31.85 -67.65 M-36.8 -69.95 L-37.7 -70.5 -38.2 -70.5 Q-39.05 -70.5 -39.4 -69.95 -40.0 -69.45 -39.95 -68.7 -39.85 -68.0 -39.25 -67.5 -38.75 -66.9 -37.9 -66.9 L-37.45 -66.95 Q-37.0 -67.1 -36.65 -67.5 L-36.55 -67.5 Q-36.25 -68.1 -36.25 -68.7 -36.25 -69.35 -36.8 -69.95 M-34.7 -72.35 Q-35.2 -71.9 -35.15 -71.1 -35.15 -70.4 -34.55 -69.8 -34.0 -69.3 -33.25 -69.3 -32.45 -69.3 -32.0 -69.8 -31.45 -70.4 -31.55 -71.1 -31.55 -71.9 -32.15 -72.35 -32.65 -72.9 -33.5 -72.9 -34.25 -72.9 -34.7 -72.35 M-23.0 -54.75 L-33.4 -54.75 -36.55 -51.5 -36.25 -47.45 -36.55 -51.5 -33.4 -54.75 -23.0 -54.75 M-39.55 -42.45 L-40.45 -42.75 -41.6 -42.3 Q-42.05 -41.9 -41.95 -41.25 -41.95 -40.55 -41.45 -40.05 -40.9 -39.65 -40.25 -39.65 -39.8 -39.65 -39.35 -39.9 L-39.1 -40.2 Q-38.65 -40.55 -38.75 -41.25 -38.8 -41.9 -39.25 -42.3 L-39.55 -42.45 M-44.75 -33.75 L-43.9 -33.45 -43.6 -33.35 -43.3 -33.35 Q-42.1 -33.35 -41.3 -34.1 -40.45 -34.95 -40.55 -36.15 L-40.9 -37.1 -41.6 -37.95 -42.25 -38.4 -43.75 -38.75 -44.0 -38.75 -44.35 -38.7 -44.6 -38.6 -45.1 -38.4 -44.6 -38.6 -44.35 -38.7 -44.0 -38.75 -43.75 -38.75 -42.25 -38.4 -41.6 -37.95 -40.9 -37.1 -40.55 -36.15 Q-40.45 -34.95 -41.3 -34.1 -42.1 -33.35 -43.3 -33.35 L-43.6 -33.35 -43.9 -33.45 -44.75 -33.75 M-43.3 -41.6 L-43.3 -41.55 -43.25 -41.25 -43.25 -40.85 Q-43.0 -39.95 -42.25 -39.2 -41.35 -38.4 -40.15 -38.4 L-39.25 -38.55 Q-38.6 -38.75 -38.05 -39.2 -37.3 -40.1 -37.45 -41.25 -37.45 -42.05 -37.9 -42.65 L-38.35 -43.1 -39.1 -43.65 -39.2 -43.7 -39.5 -43.8 -39.2 -43.7 -39.1 -43.65 -38.35 -43.1 -37.9 -42.65 Q-37.45 -42.05 -37.45 -41.25 -37.3 -40.1 -38.05 -39.2 -38.6 -38.75 -39.25 -38.55 L-40.15 -38.4 Q-41.35 -38.4 -42.25 -39.2 -43.0 -39.95 -43.25 -40.85 L-43.25 -41.25 -43.3 -41.55 -43.3 -41.6 M-44.75 -37.2 L-44.65 -37.1 -44.75 -37.1 Q-45.25 -36.65 -45.1 -36.0 -45.1 -35.4 -44.5 -35.0 L-44.45 -34.85 -44.3 -34.8 -43.4 -34.55 Q-42.7 -34.55 -42.25 -35.0 -41.75 -35.4 -41.8 -36.15 -41.9 -36.75 -42.5 -37.1 -42.95 -37.55 -43.6 -37.55 L-44.65 -37.35 -44.75 -37.2 M-38.35 -28.55 L-38.0 -28.65 Q-37.7 -28.8 -37.3 -29.1 -36.8 -29.6 -36.65 -30.2 L-36.65 -30.95 Q-36.7 -32.1 -37.6 -32.85 L-38.15 -33.2 -38.35 -33.3 -38.8 -33.5 -39.7 -33.75 -40.0 -33.6 -41.15 -33.3 -41.3 -33.2 -41.75 -32.85 -42.35 -31.8 -42.4 -31.25 -42.35 -30.95 -42.35 -30.65 -42.35 -30.95 -42.4 -31.25 -42.35 -31.8 -41.75 -32.85 -41.3 -33.2 -41.15 -33.3 -40.0 -33.6 -39.7 -33.75 -38.8 -33.5 -38.35 -33.3 -38.15 -33.2 -37.6 -32.85 Q-36.7 -32.1 -36.65 -30.95 L-36.65 -30.2 Q-36.8 -29.6 -37.3 -29.1 -37.7 -28.8 -38.0 -28.65 L-38.35 -28.55 M-41.15 -30.95 L-41.15 -30.75 -40.85 -30.2 -40.55 -29.9 Q-40.1 -29.55 -39.4 -29.55 L-38.95 -29.6 -38.5 -29.75 -38.3 -29.9 -38.05 -30.2 Q-37.85 -30.6 -37.9 -30.95 -38.0 -31.55 -38.45 -32.1 L-38.75 -32.25 -39.65 -32.55 Q-40.3 -32.55 -40.7 -32.1 -41.2 -31.55 -41.15 -30.95 M-28.6 -38.3 L-28.1 -37.95 -27.7 -37.5 -27.55 -37.35 -27.5 -37.1 -27.1 -36.0 Q-27.05 -35.25 -27.5 -34.55 L-27.7 -34.35 -27.85 -34.1 -28.3 -33.8 -28.3 -33.75 -29.3 -31.7 -29.6 -31.25 -30.05 -30.8 -29.6 -31.25 -29.3 -31.7 -28.3 -33.75 -28.3 -33.8 Q-29.0 -33.35 -29.9 -33.35 -31.1 -33.35 -32.0 -34.1 -32.95 -34.95 -33.05 -36.0 L-32.8 -37.1 -32.2 -37.95 -31.7 -38.4 -30.5 -38.75 -30.2 -38.75 Q-29.45 -38.75 -28.85 -38.4 L-28.6 -38.3 -29.45 -39.9 -29.75 -40.4 -29.45 -39.9 -28.6 -38.3 -28.85 -38.4 Q-29.45 -38.75 -30.2 -38.75 L-30.5 -38.75 -31.7 -38.4 -32.2 -37.95 -32.8 -37.1 -33.05 -36.0 Q-32.95 -34.95 -32.0 -34.1 -31.1 -33.35 -29.9 -33.35 -29.0 -33.35 -28.3 -33.8 L-27.85 -34.1 -27.7 -34.35 -27.5 -34.55 Q-27.05 -35.25 -27.1 -36.0 L-27.5 -37.1 -27.55 -37.35 -27.7 -37.5 -28.1 -37.95 -28.6 -38.3 M-35.15 -43.8 L-35.45 -43.65 -36.1 -43.1 -36.5 -42.65 Q-36.85 -42.05 -36.8 -41.25 -36.7 -40.1 -35.8 -39.2 L-34.75 -38.6 -33.65 -38.4 Q-32.45 -38.4 -31.6 -39.2 -30.8 -40.1 -30.85 -41.25 L-30.95 -41.6 -30.85 -41.25 Q-30.8 -40.1 -31.6 -39.2 -32.45 -38.4 -33.65 -38.4 L-34.75 -38.6 -35.8 -39.2 Q-36.7 -40.1 -36.8 -41.25 -36.85 -42.05 -36.5 -42.65 L-36.1 -43.1 -35.45 -43.65 -35.15 -43.8 M-34.3 -32.1 L-34.4 -32.0 -34.85 -30.95 -34.55 -30.2 -34.25 -29.9 -34.1 -29.9 Q-33.7 -29.55 -33.05 -29.55 -32.35 -29.55 -31.9 -29.9 L-31.7 -30.2 Q-31.55 -30.6 -31.55 -30.95 -31.6 -31.55 -32.05 -32.1 -32.6 -32.55 -33.25 -32.55 -33.95 -32.55 -34.3 -32.1 M-31.25 -37.1 L-31.3 -37.1 Q-31.85 -36.65 -31.75 -36.0 -31.7 -35.4 -31.15 -35.0 -30.7 -34.55 -29.95 -34.55 -29.3 -34.55 -28.85 -35.0 -28.4 -35.4 -28.4 -36.15 -28.45 -36.75 -29.0 -37.1 L-30.1 -37.55 -31.25 -37.1 M-35.05 -42.35 L-35.05 -42.3 Q-35.6 -41.9 -35.45 -41.25 -35.5 -40.55 -34.9 -40.05 L-34.85 -40.05 Q-34.45 -39.65 -33.7 -39.65 -33.05 -39.65 -32.6 -40.05 -32.15 -40.55 -32.2 -41.25 -32.3 -41.9 -32.75 -42.3 L-33.4 -42.65 -33.95 -42.75 -34.55 -42.65 -35.05 -42.35 M-38.95 -37.95 L-39.2 -37.7 -39.55 -37.1 -39.7 -36.0 Q-39.65 -35.0 -38.9 -34.25 L-38.65 -34.1 Q-37.85 -33.35 -36.65 -33.35 -35.45 -33.35 -34.55 -34.1 L-34.45 -34.25 Q-33.7 -35.0 -33.8 -36.0 -33.85 -36.6 -34.25 -37.1 L-34.7 -37.8 -34.85 -37.95 -35.6 -38.4 -37.0 -38.75 -37.3 -38.75 -38.35 -38.4 -38.95 -37.95 M-25.85 -33.3 L-26.05 -38.1 -25.85 -33.3 M-30.25 -30.65 L-30.25 -30.8 -30.25 -30.95 Q-30.35 -32.1 -31.15 -32.85 L-31.75 -33.2 -31.85 -33.3 -33.35 -33.75 -33.65 -33.6 -34.4 -33.45 -34.75 -33.3 -34.85 -33.2 -35.35 -32.85 Q-36.1 -32.1 -36.05 -30.95 L-35.95 -30.2 -35.05 -29.15 -34.85 -28.95 -34.0 -28.55 -34.85 -28.95 -35.05 -29.15 -35.95 -30.2 -36.05 -30.95 Q-36.1 -32.1 -35.35 -32.85 L-34.85 -33.2 -34.75 -33.3 -34.4 -33.45 -33.65 -33.6 -33.35 -33.75 -31.85 -33.3 -31.75 -33.2 -31.15 -32.85 Q-30.35 -32.1 -30.25 -30.95 L-30.25 -30.8 -30.25 -30.65" fill="#dddddd" fill-rule="evenodd" stroke="none"/>
    <path d="M18.25 -57.0 L24.4 -56.1 23.05 -54.9 23.05 -54.75 22.85 -50.0 22.55 -44.6 20.65 -44.6 21.8 -46.85 20.5 -50.4 18.25 -57.0 M13.45 -32.25 L21.2 -30.3 21.8 -28.4 20.45 -28.7 18.1 -29.15 16.25 -28.55 14.35 -28.05 13.45 -26.6 11.45 -23.4 10.9 -23.15 7.75 -21.8 4.6 -24.5 7.75 -25.25 7.9 -25.65 8.35 -26.6 9.05 -27.9 10.25 -30.3 10.45 -30.8 13.3 -31.65 13.45 -32.25 M25.15 -14.85 L25.45 -13.95 26.0 -13.95 27.4 -13.25 27.35 -11.6 29.6 -10.85 29.3 -6.9 27.4 -6.35 27.25 -7.7 25.6 -8.25 25.4 -10.1 25.25 -10.95 20.15 -10.95 19.9 -10.05 19.45 -8.25 18.25 -7.85 17.05 -8.45 18.25 -7.85 17.75 -7.7 17.05 -4.95 15.25 -5.75 15.35 -7.85 17.05 -8.45 16.0 -8.9 16.1 -12.5 17.65 -12.95 21.7 -13.95 25.15 -14.85 M-4.6 -24.5 L-7.7 -21.8 -11.0 -23.15 -11.45 -23.4 -13.45 -26.6 -14.35 -28.05 -16.25 -28.55 -18.2 -29.15 -20.45 -28.7 -21.7 -28.4 -21.2 -30.3 -13.45 -32.25 -13.25 -31.65 -10.45 -30.8 -10.25 -30.3 -16.25 -28.55 -10.25 -30.3 -9.05 -27.9 -8.45 -26.6 -7.85 -25.65 -7.7 -25.25 -4.6 -24.5 M-16.1 -12.5 L-15.95 -8.9 -17.05 -8.45 -15.35 -7.85 -15.25 -5.75 -17.05 -4.95 -17.75 -7.7 -18.25 -7.85 -17.05 -8.45 -18.25 -7.85 -19.45 -8.25 -19.9 -10.05 -20.15 -10.95 -25.25 -10.95 -25.4 -10.1 -25.6 -8.25 -27.2 -7.7 -27.4 -6.35 -29.3 -6.9 -29.5 -10.85 -27.35 -11.6 -27.4 -13.25 -26.0 -13.95 -25.4 -13.95 -25.15 -14.85 -21.7 -13.95 -25.4 -13.95 -21.7 -13.95 -17.65 -12.95 -16.1 -12.5 M-20.75 -44.6 L-22.55 -44.6 -22.75 -50.0 -23.0 -54.75 -23.0 -54.9 -24.35 -56.1 -18.2 -57.0 -20.6 -50.4 -22.75 -50.0 -20.6 -50.4 -21.8 -46.85 -20.75 -44.6 M38.05 -75.35 L38.6 -75.45 Q39.4 -75.45 39.8 -74.85 40.4 -74.3 40.3 -73.5 40.3 -72.8 39.65 -72.2 39.1 -71.75 38.3 -71.75 L37.75 -71.85 Q37.4 -71.9 37.0 -72.2 L36.95 -72.3 Q36.55 -72.8 36.55 -73.5 36.65 -74.25 37.1 -74.75 L37.15 -74.85 38.05 -75.35 M31.75 -75.95 Q31.85 -76.7 32.45 -77.3 32.95 -77.75 33.85 -77.75 34.55 -77.75 35.05 -77.3 L35.5 -75.95 Q35.45 -75.2 34.85 -74.7 34.3 -74.15 33.55 -74.15 32.75 -74.15 32.3 -74.7 31.75 -75.2 31.75 -75.95 M30.05 -77.3 Q30.65 -76.7 30.55 -75.95 30.5 -75.2 29.95 -74.7 L29.3 -74.25 28.6 -74.15 27.95 -74.25 27.35 -74.7 Q26.8 -75.2 26.9 -75.95 26.9 -76.7 27.5 -77.3 28.0 -77.75 28.85 -77.75 29.6 -77.75 30.05 -77.3 M28.3 -68.1 L29.35 -67.8 29.6 -67.65 Q30.05 -67.05 29.95 -66.35 29.95 -65.6 29.45 -65.15 L29.15 -64.95 Q28.7 -64.5 28.1 -64.5 27.35 -64.5 26.8 -65.15 26.3 -65.6 26.35 -66.35 26.45 -67.05 26.95 -67.65 27.5 -68.1 28.3 -68.1 M29.8 -72.35 Q30.35 -71.9 30.25 -71.1 30.25 -70.4 29.65 -69.8 L29.45 -69.65 Q29.0 -69.3 28.4 -69.3 27.55 -69.3 27.1 -69.8 26.6 -70.4 26.65 -71.1 26.65 -71.9 27.2 -72.35 27.7 -72.9 28.55 -72.9 L29.6 -72.6 29.8 -72.35 M31.85 -67.65 Q32.35 -68.1 33.2 -68.1 33.95 -68.1 34.4 -67.65 34.9 -67.05 34.9 -66.35 34.85 -65.6 34.15 -65.15 33.7 -64.5 32.95 -64.5 32.15 -64.5 31.7 -65.15 31.15 -65.6 31.25 -66.35 31.25 -67.05 31.85 -67.65 M34.7 -72.35 Q35.2 -71.9 35.2 -71.1 35.15 -70.4 34.55 -69.8 34.0 -69.3 33.25 -69.3 32.45 -69.3 31.9 -69.8 31.45 -70.4 31.45 -71.1 31.55 -71.9 32.15 -72.35 32.65 -72.9 33.5 -72.9 34.25 -72.9 34.7 -72.35 M36.85 -69.95 L37.7 -70.5 38.2 -70.5 Q39.05 -70.5 39.5 -69.95 40.0 -69.45 39.95 -68.7 39.85 -68.0 39.25 -67.5 38.75 -66.9 38.0 -66.9 L37.4 -66.95 36.7 -67.5 36.55 -67.5 Q36.25 -68.1 36.25 -68.7 36.35 -69.35 36.8 -69.95 L36.85 -69.95 M22.85 -50.0 L20.5 -50.4 22.85 -50.0 M35.05 -42.35 L35.15 -42.3 Q35.6 -41.9 35.5 -41.25 35.5 -40.55 35.0 -40.05 L34.9 -40.05 Q34.45 -39.65 33.7 -39.65 33.05 -39.65 32.65 -40.05 32.2 -40.55 32.2 -41.25 32.3 -41.9 32.75 -42.3 L33.4 -42.65 33.95 -42.75 34.55 -42.65 35.05 -42.35 M39.55 -42.45 L40.55 -42.75 41.6 -42.3 Q42.05 -41.9 42.05 -41.25 41.95 -40.55 41.35 -40.05 40.9 -39.65 40.25 -39.65 39.8 -39.65 39.35 -39.9 L39.1 -40.2 Q38.65 -40.55 38.75 -41.25 38.8 -41.9 39.25 -42.3 L39.55 -42.45 M38.95 -37.95 L39.2 -37.7 39.55 -37.1 39.7 -36.0 Q39.65 -35.0 38.95 -34.25 L38.65 -34.1 Q37.85 -33.35 36.65 -33.35 35.45 -33.35 34.55 -34.1 L34.45 -34.25 Q33.8 -35.0 33.85 -36.0 33.85 -36.6 34.15 -37.1 L34.7 -37.8 34.9 -37.95 Q35.2 -38.25 35.6 -38.4 L37.0 -38.75 37.3 -38.75 38.35 -38.4 38.95 -37.95 M31.3 -37.1 L31.4 -37.1 Q31.75 -36.65 31.75 -36.0 31.7 -35.4 31.25 -35.0 30.7 -34.55 30.05 -34.55 29.3 -34.55 28.85 -35.0 28.4 -35.4 28.45 -36.15 28.55 -36.75 29.0 -37.1 29.6 -37.55 30.1 -37.55 30.85 -37.55 31.3 -37.1 M34.3 -32.1 L34.3 -32.0 Q34.85 -31.55 34.85 -30.95 L34.55 -30.2 34.25 -29.9 34.15 -29.9 Q33.8 -29.55 33.05 -29.55 32.35 -29.55 31.9 -29.9 L31.7 -30.2 Q31.55 -30.6 31.55 -30.95 31.6 -31.55 32.15 -32.1 32.6 -32.55 33.25 -32.55 33.95 -32.55 34.3 -32.1 M41.15 -30.95 L41.15 -30.75 40.85 -30.2 40.55 -29.9 Q40.1 -29.55 39.4 -29.55 L38.95 -29.6 38.5 -29.75 38.3 -29.9 38.05 -30.2 Q37.9 -30.6 37.9 -30.95 38.0 -31.55 38.45 -32.1 L38.75 -32.25 39.65 -32.55 Q40.4 -32.55 40.75 -32.1 41.2 -31.55 41.15 -30.95 M9.05 -27.9 L12.35 -26.9 13.45 -26.6 12.35 -26.9 10.15 -26.0 8.35 -26.6 10.15 -26.0 12.35 -26.9 9.05 -27.9 M10.25 -30.3 L16.25 -28.55 10.25 -30.3 M17.65 -12.95 L17.6 -10.85 19.9 -10.05 17.6 -10.85 17.65 -12.95 M25.45 -13.95 L21.7 -13.95 25.45 -13.95 M27.35 -11.6 L27.25 -10.7 25.4 -10.1 27.25 -10.7 27.35 -11.6 M10.9 -23.15 L7.9 -25.65 10.9 -23.15 M44.75 -37.2 L44.75 -37.1 44.8 -37.1 Q45.25 -36.65 45.1 -36.0 45.1 -35.4 44.6 -35.0 L44.45 -34.85 44.3 -34.8 43.4 -34.55 Q42.7 -34.55 42.25 -35.0 41.8 -35.4 41.8 -36.15 41.9 -36.75 42.4 -37.1 42.95 -37.55 43.7 -37.55 L44.65 -37.35 44.75 -37.2 M-38.0 -75.35 L-37.15 -74.85 -37.1 -74.75 Q-36.65 -74.25 -36.55 -73.5 -36.55 -72.8 -36.95 -72.3 L-37.0 -72.2 Q-37.4 -71.9 -37.75 -71.85 L-38.3 -71.75 Q-39.1 -71.75 -39.65 -72.2 -40.25 -72.8 -40.3 -73.5 -40.4 -74.3 -39.85 -74.85 -39.35 -75.45 -38.6 -75.45 L-38.0 -75.35 M-31.75 -75.95 Q-31.75 -75.2 -32.3 -74.7 -32.75 -74.15 -33.55 -74.15 -34.3 -74.15 -34.85 -74.7 -35.45 -75.2 -35.45 -75.95 -35.6 -76.7 -35.0 -77.3 -34.55 -77.75 -33.8 -77.75 -32.95 -77.75 -32.45 -77.3 -31.85 -76.7 -31.75 -75.95 M-30.1 -77.3 L-28.85 -77.75 Q-28.0 -77.75 -27.5 -77.3 -26.9 -76.7 -26.9 -75.95 -26.8 -75.2 -27.35 -74.7 L-27.95 -74.25 -28.55 -74.15 -29.3 -74.25 -29.95 -74.7 Q-30.5 -75.2 -30.55 -75.95 -30.65 -76.7 -30.1 -77.3 M-29.8 -72.35 L-29.6 -72.6 -28.55 -72.9 Q-27.7 -72.9 -27.2 -72.35 -26.65 -71.9 -26.6 -71.1 -26.6 -70.4 -27.05 -69.8 -27.55 -69.3 -28.3 -69.3 -29.0 -69.3 -29.45 -69.65 L-29.65 -69.8 Q-30.25 -70.4 -30.25 -71.1 -30.35 -71.9 -29.8 -72.35 M-28.25 -68.1 Q-27.5 -68.1 -26.95 -67.65 -26.45 -67.05 -26.35 -66.35 -26.35 -65.6 -26.8 -65.15 -27.35 -64.5 -28.1 -64.5 -28.75 -64.5 -29.15 -64.95 L-29.35 -65.15 Q-29.95 -65.6 -29.95 -66.35 -30.05 -67.05 -29.5 -67.65 L-29.3 -67.8 -28.25 -68.1 M-34.7 -72.35 Q-34.25 -72.9 -33.5 -72.9 -32.65 -72.9 -32.15 -72.35 -31.55 -71.9 -31.55 -71.1 -31.45 -70.4 -32.0 -69.8 -32.45 -69.3 -33.25 -69.3 -34.0 -69.3 -34.55 -69.8 -35.15 -70.4 -35.15 -71.1 -35.2 -71.9 -34.7 -72.35 M-36.8 -69.95 Q-36.25 -69.35 -36.25 -68.7 -36.25 -68.1 -36.55 -67.5 L-36.65 -67.5 Q-37.0 -67.1 -37.45 -66.95 L-37.9 -66.9 Q-38.75 -66.9 -39.25 -67.5 -39.85 -68.0 -39.95 -68.7 -40.0 -69.45 -39.4 -69.95 -39.05 -70.5 -38.2 -70.5 L-37.7 -70.5 -36.8 -69.95 M-31.85 -67.65 Q-31.25 -67.05 -31.15 -66.35 -31.15 -65.6 -31.7 -65.15 -32.15 -64.5 -32.95 -64.5 -33.7 -64.5 -34.25 -65.15 -34.75 -65.6 -34.85 -66.35 -34.9 -67.05 -34.4 -67.65 L-33.2 -68.1 Q-32.35 -68.1 -31.85 -67.65 M-39.55 -42.45 L-39.25 -42.3 Q-38.8 -41.9 -38.75 -41.25 -38.65 -40.55 -39.1 -40.2 L-39.35 -39.9 Q-39.8 -39.65 -40.25 -39.65 -40.9 -39.65 -41.45 -40.05 -41.95 -40.55 -41.95 -41.25 -42.05 -41.9 -41.6 -42.3 L-40.45 -42.75 -39.55 -42.45 M-44.75 -37.2 L-44.65 -37.35 -43.6 -37.55 Q-42.95 -37.55 -42.5 -37.1 -41.9 -36.75 -41.8 -36.15 -41.75 -35.4 -42.25 -35.0 -42.7 -34.55 -43.4 -34.55 L-44.3 -34.8 -44.45 -34.85 -44.5 -35.0 Q-45.1 -35.4 -45.1 -36.0 -45.25 -36.65 -44.75 -37.1 L-44.65 -37.1 -44.75 -37.2 M-41.15 -30.95 Q-41.2 -31.55 -40.7 -32.1 -40.3 -32.55 -39.65 -32.55 L-38.75 -32.25 -38.45 -32.1 Q-38.0 -31.55 -37.9 -30.95 -37.85 -30.6 -38.05 -30.2 L-38.3 -29.9 -38.5 -29.75 -38.95 -29.6 -39.4 -29.55 Q-40.1 -29.55 -40.55 -29.9 L-40.85 -30.2 -41.15 -30.75 -41.15 -30.95 M-8.45 -26.6 L-10.1 -26.0 -12.35 -26.9 -13.45 -26.6 -12.35 -26.9 -9.05 -27.9 -12.35 -26.9 -10.1 -26.0 -8.45 -26.6 M-38.95 -37.95 L-38.35 -38.4 -37.3 -38.75 -37.0 -38.75 -35.6 -38.4 -34.85 -37.95 -34.7 -37.8 -34.25 -37.1 Q-33.85 -36.6 -33.8 -36.0 -33.7 -35.0 -34.45 -34.25 L-34.55 -34.1 Q-35.45 -33.35 -36.65 -33.35 -37.85 -33.35 -38.65 -34.1 L-38.9 -34.25 Q-39.65 -35.0 -39.7 -36.0 L-39.55 -37.1 -39.2 -37.7 -38.95 -37.95 M-35.05 -42.35 L-34.55 -42.65 -33.95 -42.75 -33.4 -42.65 -32.75 -42.3 Q-32.3 -41.9 -32.2 -41.25 -32.15 -40.55 -32.6 -40.05 -33.05 -39.65 -33.7 -39.65 -34.45 -39.65 -34.85 -40.05 L-34.9 -40.05 Q-35.5 -40.55 -35.45 -41.25 -35.6 -41.9 -35.05 -42.3 L-35.05 -42.35 M-31.25 -37.1 L-30.1 -37.55 -29.0 -37.1 Q-28.45 -36.75 -28.4 -36.15 -28.4 -35.4 -28.85 -35.0 -29.3 -34.55 -29.95 -34.55 -30.7 -34.55 -31.15 -35.0 -31.7 -35.4 -31.75 -36.0 -31.85 -36.65 -31.3 -37.1 L-31.25 -37.1 M-34.3 -32.1 Q-33.95 -32.55 -33.25 -32.55 -32.6 -32.55 -32.05 -32.1 -31.6 -31.55 -31.55 -30.95 -31.55 -30.6 -31.7 -30.2 L-31.9 -29.9 Q-32.35 -29.55 -33.05 -29.55 -33.7 -29.55 -34.1 -29.9 L-34.25 -29.9 -34.55 -30.2 -34.85 -30.95 -34.4 -32.0 -34.3 -32.1 M-27.35 -11.6 L-27.25 -10.7 -25.4 -10.1 -27.25 -10.7 -27.35 -11.6 M-17.65 -12.95 L-17.6 -10.85 -19.9 -10.05 -17.6 -10.85 -17.65 -12.95 M-7.85 -25.65 L-11.0 -23.15 -7.85 -25.65" fill="#333333" fill-rule="evenodd" stroke="none"/>
    <path d="M17.35 -59.15 L18.25 -57.0 20.5 -50.4 21.8 -46.85 6.95 -41.9 5.45 -44.6 6.95 -41.9 21.8 -46.85 20.65 -44.6 16.9 -36.15 14.75 -35.3 13.45 -32.25 13.3 -31.65 10.45 -30.8 10.25 -30.3 9.05 -27.9 8.35 -26.6 7.9 -25.65 7.75 -25.25 4.6 -24.5 3.55 -24.2 3.1 -22.55 -3.05 -22.55 -3.55 -24.2 -4.6 -24.5 -7.7 -25.25 -7.85 -25.65 -8.45 -26.6 -9.05 -27.9 -10.25 -30.3 -10.45 -30.8 -13.25 -31.65 -13.45 -32.25 -14.75 -35.3 -16.9 -36.15 -20.75 -44.6 -21.8 -46.85 -6.95 -41.9 -5.35 -38.1 -6.95 -41.9 -21.8 -46.85 -20.6 -50.4 -18.2 -57.0 -17.35 -59.15 -15.35 -64.7 -14.65 -66.6 -8.9 -67.1 -0.05 -67.5 0.05 -67.5 8.9 -67.1 14.65 -66.6 15.35 -64.7 17.35 -59.15 M21.8 -28.4 L25.1 -27.75 28.15 -16.8 28.6 -15.75 25.15 -14.85 21.7 -13.95 17.65 -12.95 16.1 -12.5 15.65 -12.45 12.8 -5.45 11.45 -5.45 9.8 -8.25 5.2 -16.35 5.3 -20.85 7.75 -21.8 10.9 -23.15 11.45 -23.4 13.45 -26.6 14.35 -28.05 16.25 -28.55 18.1 -29.15 20.45 -28.7 21.8 -28.4 M27.4 -6.35 L27.7 -4.1 29.75 -3.8 29.75 -3.35 25.75 -3.35 24.7 -3.35 20.0 -3.35 18.95 -3.35 15.1 -3.35 15.2 -3.8 16.9 -4.05 17.05 -4.95 17.75 -7.7 18.25 -7.85 19.45 -8.25 19.9 -10.05 20.15 -10.95 25.25 -10.95 25.4 -10.1 25.6 -8.25 27.25 -7.7 27.4 -6.35 M-7.7 -21.8 L-5.3 -20.85 -5.2 -16.35 -9.8 -8.25 -11.35 -5.45 -12.7 -5.45 -15.65 -12.45 -16.1 -12.5 -17.65 -12.95 -21.7 -13.95 -25.15 -14.85 -28.6 -15.75 -28.1 -16.8 -25.1 -27.75 -21.7 -28.4 -20.45 -28.7 -18.2 -29.15 -16.25 -28.55 -14.35 -28.05 -13.45 -26.6 -11.45 -23.4 -11.0 -23.15 -7.7 -21.8 M-17.05 -4.95 L-16.85 -4.05 -15.2 -3.8 -15.05 -3.35 -18.85 -3.35 -20.0 -3.35 -24.7 -3.35 -25.75 -3.35 -29.75 -3.35 -29.65 -3.8 -27.7 -4.1 -27.4 -6.35 -27.2 -7.7 -25.6 -8.25 -25.4 -10.1 -25.25 -10.95 -20.15 -10.95 -19.9 -10.05 -19.45 -8.25 -18.25 -7.85 -17.75 -7.7 -17.05 -4.95 M12.35 -62.3 L14.65 -66.6 12.35 -62.3 12.25 -62.3 0.05 -63.0 -0.05 -63.0 -12.25 -62.3 -12.35 -62.3 -17.15 -49.05 -5.5 -44.6 -3.95 -47.6 3.95 -47.6 5.45 -44.6 17.15 -49.05 12.35 -62.3 M14.75 -35.3 L9.7 -33.75 5.35 -38.1 6.95 -41.9 0.05 -41.25 -0.05 -41.25 -6.95 -41.9 -5.5 -44.6 -5.45 -44.6 -0.05 -44.25 0.05 -44.25 5.45 -44.6 0.05 -44.25 -0.05 -44.25 -5.45 -44.6 -5.5 -44.6 -6.95 -41.9 -0.05 -41.25 0.05 -41.25 6.95 -41.9 5.35 -38.1 9.7 -33.75 14.75 -35.3 M28.15 -16.8 L14.65 -13.35 13.45 -17.15 23.05 -19.7 20.45 -28.7 23.05 -19.7 13.45 -17.15 14.65 -13.35 28.15 -16.8 M9.7 -33.75 L9.65 -33.35 6.65 -27.2 4.4 -27.2 -4.4 -27.2 -6.65 -27.2 -9.8 -33.75 -5.35 -38.1 -0.05 -37.7 0.05 -37.7 5.35 -38.1 0.05 -37.7 -0.05 -37.7 -5.35 -38.1 -9.8 -33.75 -6.65 -27.2 -4.4 -27.2 4.4 -27.2 6.65 -27.2 9.65 -33.35 9.7 -33.75 M9.8 -8.25 L13.45 -17.15 11.45 -23.4 13.45 -17.15 9.8 -8.25 M18.95 -3.35 L18.55 -4.35 19.45 -8.25 18.55 -4.35 18.95 -3.35 M11.45 -5.45 L14.65 -13.35 11.45 -5.45 M16.9 -4.05 L18.55 -4.35 16.9 -4.05 M27.7 -4.1 L26.3 -4.35 25.6 -8.25 26.3 -4.35 27.7 -4.1 M26.3 -4.35 L25.75 -3.35 26.3 -4.35 M24.7 -3.35 L24.2 -8.1 20.9 -8.1 20.0 -3.35 20.9 -8.1 24.2 -8.1 24.7 -3.35 M4.4 -27.2 L3.55 -24.2 4.4 -27.2 M-14.65 -66.6 L-12.35 -62.3 -14.65 -66.6 M-9.8 -33.75 L-14.75 -35.3 -9.8 -33.75 M-24.7 -3.35 L-24.1 -8.1 -20.9 -8.1 -20.0 -3.35 -20.9 -8.1 -24.1 -8.1 -24.7 -3.35 M-27.7 -4.1 L-26.3 -4.35 -25.75 -3.35 -26.3 -4.35 -27.7 -4.1 M-11.35 -5.45 L-14.65 -13.35 -13.45 -17.15 -9.8 -8.25 -13.45 -17.15 -14.65 -13.35 -11.35 -5.45 M-25.6 -8.25 L-26.3 -4.35 -25.6 -8.25 M-20.45 -28.7 L-23.05 -19.7 -13.45 -17.15 -11.45 -23.4 -13.45 -17.15 -23.05 -19.7 -20.45 -28.7 M-18.85 -3.35 L-18.5 -4.35 -19.45 -8.25 -18.5 -4.35 -16.85 -4.05 -18.5 -4.35 -18.85 -3.35 M-4.4 -27.2 L-3.55 -24.2 -4.4 -27.2 M-28.1 -16.8 L-14.65 -13.35 -28.1 -16.8" fill="#dddddd" fill-rule="evenodd" stroke="none"/>
    <path d="M12.35 -62.3 L17.15 -49.05 5.45 -44.6 3.95 -47.6 -3.95 -47.6 -5.5 -44.6 -17.15 -49.05 -12.35 -62.3 -12.25 -62.3 -0.05 -63.0 0.05 -63.0 12.25 -62.3 12.35 -62.3" fill="#333333" fill-rule="evenodd" stroke="none"/>
    <path d="M32.15 -46.35 L32.15 -44.7 36.05 -43.95 35.5 -43.85 35.15 -43.8 35.05 -43.8 34.85 -43.85 34.4 -43.95 34.0 -43.95 32.6 -43.65 31.85 -43.1 31.45 -42.65 31.3 -42.45 31.0 -41.75 30.95 -41.6 29.75 -40.4 27.4 -40.4 26.8 -39.9 26.05 -41.85 29.05 -42.6 29.3 -45.35 30.2 -45.75 32.15 -46.35 M-26.05 -41.85 L-26.8 -39.9 -27.4 -40.4 -29.75 -40.4 -30.95 -41.6 -30.95 -41.75 -31.25 -42.45 -31.45 -42.65 -31.85 -43.1 -32.5 -43.65 -34.0 -43.95 -34.4 -43.95 -34.75 -43.85 -35.05 -43.8 -35.15 -43.8 -35.45 -43.85 -36.05 -43.95 -32.05 -44.7 -32.15 -46.35 -30.2 -45.75 -29.3 -45.35 -29.05 -42.6 -26.05 -41.85 M30.2 -45.75 L29.95 -42.3 Q30.5 -42.0 31.0 -41.75 30.5 -42.0 29.95 -42.3 L30.2 -45.75 M-30.95 -41.75 L-29.95 -42.3 -30.2 -45.75 -29.95 -42.3 -30.95 -41.75" fill="#333333" fill-rule="evenodd" stroke="none"/>
    <path d="M23.5 -62.25 L24.25 -61.4 37.0 -61.4 42.85 -66.75 43.6 -75.6 38.45 -81.15 25.25 -81.15 23.5 -79.55 23.2 -71.75 23.05 -68.3 22.85 -62.9 23.5 -62.25 17.35 -59.15 18.25 -57.0 24.4 -56.1 25.75 -57.35 35.8 -57.35 39.85 -53.1 39.55 -48.45 36.35 -47.45 32.15 -46.35 32.15 -44.7 36.05 -43.95 36.5 -44.0 36.55 -44.0 37.3 -44.0 39.5 -43.8 40.3 -43.95 40.6 -43.95 40.9 -43.95 42.05 -43.65 42.65 -43.1 Q43.3 -42.5 43.3 -41.6 L43.9 -40.85 Q44.45 -40.35 44.65 -39.65 L45.1 -38.7 45.1 -38.4 Q45.25 -38.3 45.5 -38.15 L45.7 -37.95 Q46.55 -37.1 46.45 -36.0 46.3 -34.95 45.35 -34.1 L44.75 -33.75 44.6 -33.45 44.3 -32.75 43.1 -31.25 42.95 -31.1 42.35 -30.65 42.2 -30.2 41.45 -29.15 Q40.55 -28.4 39.35 -28.4 L38.45 -28.5 38.3 -28.55 38.0 -28.5 36.2 -28.35 35.45 -28.35 34.45 -28.4 34.0 -28.55 33.8 -28.4 32.95 -28.4 Q31.75 -28.4 31.0 -29.15 L30.4 -29.85 30.35 -30.2 30.25 -30.65 30.05 -30.8 27.85 -30.8 25.75 -32.45 25.85 -33.3 24.4 -34.1 24.65 -37.95 26.05 -38.1 26.15 -39.45 26.8 -39.9 26.05 -41.85 24.25 -41.45 22.45 -42.9 22.55 -44.6 20.65 -44.6 16.9 -36.15 14.75 -35.3 13.45 -32.25 21.2 -30.3 21.8 -28.4 25.1 -27.75 28.15 -16.8 28.6 -15.75 25.15 -14.85 25.45 -13.95 26.0 -13.95 27.4 -13.25 27.35 -11.6 29.6 -10.85 29.3 -6.9 27.4 -6.35 27.7 -4.1 29.75 -3.8 29.75 -3.35 M15.1 -3.35 L15.2 -3.8 16.9 -4.05 17.05 -4.95 15.25 -5.75 15.35 -7.85 17.05 -8.45 16.0 -8.9 16.1 -12.5 15.65 -12.45 12.8 -5.45 11.45 -5.45 9.8 -8.25 5.2 -16.35 5.3 -20.85 7.75 -21.8 4.6 -24.5 3.55 -24.2 3.1 -22.55 -3.05 -22.55 -3.55 -24.2 -4.6 -24.5 -7.7 -21.8 -5.3 -20.85 -5.2 -16.35 -9.8 -8.25 -11.35 -5.45 -12.7 -5.45 -15.65 -12.45 -16.1 -12.5 -15.95 -8.9 -17.05 -8.45 -15.35 -7.85 -15.25 -5.75 -17.05 -4.95 -16.85 -4.05 -15.2 -3.8 -15.05 -3.35 M-29.75 -3.35 L-29.65 -3.8 -27.7 -4.1 -27.4 -6.35 -29.3 -6.9 -29.5 -10.85 -27.35 -11.6 -27.4 -13.25 -26.0 -13.95 -25.4 -13.95 -25.15 -14.85 -28.6 -15.75 -28.1 -16.8 -25.1 -27.75 -21.7 -28.4 -21.2 -30.3 -13.45 -32.25 -14.75 -35.3 -16.9 -36.15 -20.75 -44.6 -22.55 -44.6 -22.45 -42.9 -24.25 -41.45 -26.05 -41.85 -26.8 -39.9 -26.15 -39.45 -26.05 -38.1 -24.65 -37.95 -24.4 -34.1 -25.85 -33.3 -25.75 -32.45 -27.85 -30.8 -30.05 -30.8 -30.25 -30.65 -30.35 -30.2 -30.5 -29.85 -31.0 -29.15 Q-31.75 -28.4 -32.95 -28.4 L-33.7 -28.4 -34.0 -28.55 -34.45 -28.4 -35.45 -28.35 -36.2 -28.35 -38.0 -28.5 -38.35 -28.55 Q-38.35 -28.5 -38.45 -28.5 L-39.35 -28.4 Q-40.55 -28.4 -41.45 -29.15 L-42.2 -30.2 -42.35 -30.65 -42.95 -31.1 -43.1 -31.25 -44.3 -32.75 -44.6 -33.45 -44.75 -33.75 -45.35 -34.1 Q-46.3 -34.95 -46.4 -36.0 -46.55 -37.1 -45.7 -37.95 L-45.5 -38.15 -45.1 -38.4 -45.05 -38.7 -44.65 -39.65 -44.0 -40.85 -43.3 -41.6 Q-43.3 -42.5 -42.65 -43.1 L-41.95 -43.65 -40.9 -43.95 -40.55 -43.95 -40.3 -43.95 -39.5 -43.8 -37.3 -44.0 -36.55 -44.0 -36.4 -44.0 -36.05 -43.95 -32.05 -44.7 -32.15 -46.35 -36.25 -47.45 -39.5 -48.45 -39.85 -53.1 -35.8 -57.35 -25.75 -57.35 -24.35 -56.1 -18.2 -57.0 -17.35 -59.15 -23.5 -62.25 -24.25 -61.4 -37.0 -61.4 -42.85 -66.75 -43.6 -75.6 -38.45 -81.15 -25.25 -81.15 -23.5 -79.55 -23.2 -71.75 -19.75 -69.95 -19.25 -68.4 -17.05 -67.35 -15.95 -68.7 -9.95 -68.7 -8.9 -67.1 -0.05 -67.5 0.05 -67.5 8.9 -67.1 9.95 -68.7 15.95 -68.7 17.05 -67.35 19.25 -68.4 19.75 -69.95 23.2 -71.75 M25.4 -78.9 L24.65 -63.6 25.0 -63.15 36.25 -63.15 41.15 -67.55 41.75 -74.75 37.4 -79.35 25.85 -79.35 25.4 -78.9 M30.05 -77.3 Q29.6 -77.75 28.85 -77.75 28.0 -77.75 27.5 -77.3 26.9 -76.7 26.9 -75.95 26.8 -75.2 27.35 -74.7 L27.95 -74.25 28.6 -74.15 29.3 -74.25 29.95 -74.7 Q30.5 -75.2 30.55 -75.95 30.65 -76.7 30.05 -77.3 M31.75 -75.95 Q31.75 -75.2 32.3 -74.7 32.75 -74.15 33.55 -74.15 34.3 -74.15 34.85 -74.7 35.45 -75.2 35.5 -75.95 L35.05 -77.3 Q34.55 -77.75 33.85 -77.75 32.95 -77.75 32.45 -77.3 31.85 -76.7 31.75 -75.95 M38.05 -75.35 L37.15 -74.85 37.1 -74.75 Q36.65 -74.25 36.55 -73.5 36.55 -72.8 36.95 -72.3 L37.0 -72.2 Q37.4 -71.9 37.75 -71.85 L38.3 -71.75 Q39.1 -71.75 39.65 -72.2 40.3 -72.8 40.3 -73.5 40.4 -74.3 39.8 -74.85 39.4 -75.45 38.6 -75.45 L38.05 -75.35 M15.35 -64.7 L18.1 -66.05 17.05 -67.35 M17.35 -59.15 L15.35 -64.7 14.65 -66.6 12.35 -62.3 17.15 -49.05 5.45 -44.6 6.95 -41.9 21.8 -46.85 20.5 -50.4 18.25 -57.0 M12.35 -62.3 L12.25 -62.3 0.05 -63.0 -0.05 -63.0 -12.25 -62.3 -12.35 -62.3 -17.15 -49.05 -5.5 -44.6 -3.95 -47.6 3.95 -47.6 5.45 -44.6 0.05 -44.25 -0.05 -44.25 -5.45 -44.6 -5.5 -44.6 -6.95 -41.9 -0.05 -41.25 0.05 -41.25 6.95 -41.9 5.35 -38.1 9.7 -33.75 14.75 -35.3 M14.65 -66.6 L8.9 -67.1 M36.85 -69.95 L36.8 -69.95 Q36.35 -69.35 36.25 -68.7 36.25 -68.1 36.55 -67.5 L36.7 -67.5 37.4 -66.95 38.0 -66.9 Q38.75 -66.9 39.25 -67.5 39.85 -68.0 39.95 -68.7 40.0 -69.45 39.5 -69.95 39.05 -70.5 38.2 -70.5 L37.7 -70.5 36.85 -69.95 M34.7 -72.35 Q34.25 -72.9 33.5 -72.9 32.65 -72.9 32.15 -72.35 31.55 -71.9 31.45 -71.1 31.45 -70.4 31.9 -69.8 32.45 -69.3 33.25 -69.3 34.0 -69.3 34.55 -69.8 35.15 -70.4 35.2 -71.1 35.2 -71.9 34.7 -72.35 M31.85 -67.65 Q31.25 -67.05 31.25 -66.35 31.15 -65.6 31.7 -65.15 32.15 -64.5 32.95 -64.5 33.7 -64.5 34.15 -65.15 34.85 -65.6 34.9 -66.35 34.9 -67.05 34.4 -67.65 33.95 -68.1 33.2 -68.1 32.35 -68.1 31.85 -67.65 M29.8 -72.35 L29.6 -72.6 28.55 -72.9 Q27.7 -72.9 27.2 -72.35 26.65 -71.9 26.65 -71.1 26.6 -70.4 27.1 -69.8 27.55 -69.3 28.4 -69.3 29.0 -69.3 29.45 -69.65 L29.65 -69.8 Q30.25 -70.4 30.25 -71.1 30.35 -71.9 29.8 -72.35 M28.3 -68.1 Q27.5 -68.1 26.95 -67.65 26.45 -67.05 26.35 -66.35 26.3 -65.6 26.8 -65.15 27.35 -64.5 28.1 -64.5 28.7 -64.5 29.15 -64.95 L29.45 -65.15 Q29.95 -65.6 29.95 -66.35 30.05 -67.05 29.6 -67.65 L29.35 -67.8 28.3 -68.1 M23.05 -54.75 L22.85 -50.0 22.55 -44.6 M20.5 -50.4 L22.85 -50.0 M24.4 -56.1 L23.05 -54.9 23.05 -54.75 33.5 -54.75 36.55 -51.5 36.35 -47.45 M23.05 -68.3 L18.1 -66.05 M31.0 -41.75 L31.3 -42.45 31.45 -42.65 31.85 -43.1 32.6 -43.65 34.0 -43.95 34.4 -43.95 34.85 -43.85 35.05 -43.8 35.15 -43.8 35.5 -43.85 36.05 -43.95 M39.5 -43.8 L39.25 -43.7 39.1 -43.65 38.35 -43.1 38.0 -42.65 Q37.55 -42.05 37.4 -41.25 37.3 -40.1 38.15 -39.2 38.6 -38.75 39.25 -38.55 L40.15 -38.4 Q41.35 -38.4 42.35 -39.2 43.1 -39.95 43.25 -40.85 L43.25 -41.25 43.3 -41.55 43.3 -41.6 M35.05 -42.35 L34.55 -42.65 33.95 -42.75 33.4 -42.65 32.75 -42.3 Q32.3 -41.9 32.2 -41.25 32.2 -40.55 32.65 -40.05 33.05 -39.65 33.7 -39.65 34.45 -39.65 34.9 -40.05 L35.0 -40.05 Q35.5 -40.55 35.5 -41.25 35.6 -41.9 35.15 -42.3 L35.05 -42.35 M30.95 -41.6 L30.95 -41.25 Q30.85 -40.1 31.6 -39.2 32.45 -38.4 33.7 -38.4 L34.75 -38.6 35.8 -39.2 Q36.7 -40.1 36.8 -41.25 36.85 -42.05 36.5 -42.65 L36.1 -43.1 35.5 -43.65 35.15 -43.8 M31.0 -41.75 L30.95 -41.6 29.75 -40.4 29.45 -39.9 28.6 -38.3 28.85 -38.4 Q29.5 -38.75 30.2 -38.75 L30.5 -38.75 31.7 -38.4 32.3 -37.95 32.8 -37.1 33.05 -36.0 Q32.95 -34.95 32.0 -34.1 31.1 -33.35 29.9 -33.35 29.0 -33.35 28.4 -33.8 L28.4 -33.75 Q28.7 -32.6 29.35 -31.7 L29.6 -31.25 30.05 -30.8 M38.95 -37.95 L38.35 -38.4 37.3 -38.75 37.0 -38.75 35.6 -38.4 Q35.2 -38.25 34.9 -37.95 L34.7 -37.8 34.15 -37.1 Q33.85 -36.6 33.85 -36.0 33.8 -35.0 34.45 -34.25 L34.55 -34.1 Q35.45 -33.35 36.65 -33.35 37.85 -33.35 38.65 -34.1 L38.95 -34.25 Q39.65 -35.0 39.7 -36.0 L39.55 -37.1 39.2 -37.7 38.95 -37.95 M39.55 -42.45 L39.25 -42.3 Q38.8 -41.9 38.75 -41.25 38.65 -40.55 39.1 -40.2 L39.35 -39.9 Q39.8 -39.65 40.25 -39.65 40.9 -39.65 41.35 -40.05 41.95 -40.55 42.05 -41.25 42.05 -41.9 41.6 -42.3 L40.55 -42.75 39.55 -42.45 M26.05 -41.85 L29.05 -42.6 29.3 -45.35 30.2 -45.75 32.15 -46.35 M20.65 -44.6 L21.8 -46.85 M28.4 -33.8 L27.95 -34.1 27.7 -34.35 27.5 -34.55 Q27.1 -35.25 27.1 -36.0 L27.5 -37.1 27.55 -37.35 27.65 -37.5 28.15 -37.95 28.6 -38.3 M29.75 -40.4 L27.4 -40.4 26.8 -39.9 M31.0 -41.75 Q30.5 -42.0 29.95 -42.3 L30.2 -45.75 M31.3 -37.1 Q30.85 -37.55 30.1 -37.55 29.6 -37.55 29.0 -37.1 28.55 -36.75 28.45 -36.15 28.4 -35.4 28.85 -35.0 29.3 -34.55 30.05 -34.55 30.7 -34.55 31.25 -35.0 31.7 -35.4 31.75 -36.0 31.75 -36.65 31.4 -37.1 L31.3 -37.1 M21.8 -28.4 L20.45 -28.7 23.05 -19.7 13.45 -17.15 14.65 -13.35 28.15 -16.8 M34.0 -28.55 L34.85 -28.95 35.15 -29.15 35.9 -30.2 36.05 -30.95 Q36.2 -32.1 35.35 -32.85 L34.85 -33.2 34.7 -33.3 34.4 -33.45 33.7 -33.6 33.35 -33.75 31.85 -33.3 31.75 -33.2 31.15 -32.85 Q30.35 -32.1 30.25 -30.95 L30.25 -30.8 30.25 -30.65 M42.35 -30.65 L42.4 -30.95 42.4 -31.25 42.35 -31.8 41.75 -32.85 41.3 -33.2 41.15 -33.3 40.0 -33.6 39.7 -33.75 38.8 -33.5 38.3 -33.3 38.15 -33.2 37.6 -32.85 Q36.7 -32.1 36.65 -30.95 L36.65 -30.2 Q36.8 -29.6 37.3 -29.1 37.7 -28.8 38.05 -28.65 L38.3 -28.55 M41.15 -30.95 Q41.2 -31.55 40.75 -32.1 40.4 -32.55 39.65 -32.55 L38.75 -32.25 38.45 -32.1 Q38.0 -31.55 37.9 -30.95 37.9 -30.6 38.05 -30.2 L38.3 -29.9 38.5 -29.75 38.95 -29.6 39.4 -29.55 Q40.1 -29.55 40.55 -29.9 L40.85 -30.2 41.15 -30.75 41.15 -30.95 M34.3 -32.1 Q33.95 -32.55 33.25 -32.55 32.6 -32.55 32.15 -32.1 31.6 -31.55 31.55 -30.95 31.55 -30.6 31.7 -30.2 L31.9 -29.9 Q32.35 -29.55 33.05 -29.55 33.8 -29.55 34.15 -29.9 L34.25 -29.9 34.55 -30.2 34.85 -30.95 Q34.85 -31.55 34.3 -32.0 L34.3 -32.1 M26.05 -38.1 L25.85 -33.3 M5.35 -38.1 L0.05 -37.7 -0.05 -37.7 -5.35 -38.1 -9.8 -33.75 -6.65 -27.2 -4.4 -27.2 4.4 -27.2 6.65 -27.2 9.65 -33.35 9.7 -33.75 M4.6 -24.5 L7.75 -25.25 7.9 -25.65 8.35 -26.6 9.05 -27.9 10.25 -30.3 10.45 -30.8 13.3 -31.65 13.45 -32.25 M20.45 -28.7 L18.1 -29.15 16.25 -28.55 14.35 -28.05 13.45 -26.6 11.45 -23.4 13.45 -17.15 9.8 -8.25 M13.45 -26.6 L12.35 -26.9 10.15 -26.0 8.35 -26.6 M16.25 -28.55 L10.25 -30.3 M12.35 -26.9 L9.05 -27.9 M11.45 -23.4 L10.9 -23.15 7.75 -21.8 M16.1 -12.5 L17.65 -12.95 21.7 -13.95 25.15 -14.85 M25.6 -8.25 L25.4 -10.1 25.25 -10.95 20.15 -10.95 19.9 -10.05 19.45 -8.25 18.55 -4.35 18.95 -3.35 M17.05 -8.45 L18.25 -7.85 19.45 -8.25 M19.9 -10.05 L17.6 -10.85 17.65 -12.95 M18.25 -7.85 L17.75 -7.7 17.05 -4.95 M18.55 -4.35 L16.9 -4.05 M14.65 -13.35 L11.45 -5.45 M21.7 -13.95 L25.45 -13.95 M27.4 -6.35 L27.25 -7.7 25.6 -8.25 26.3 -4.35 27.7 -4.1 M25.4 -10.1 L27.25 -10.7 27.35 -11.6 M20.0 -3.35 L20.9 -8.1 24.2 -8.1 24.7 -3.35 M25.75 -3.35 L26.3 -4.35 M7.9 -25.65 L10.9 -23.15 M3.55 -24.2 L4.4 -27.2 M45.1 -38.4 L44.6 -38.6 44.35 -38.7 44.0 -38.75 43.75 -38.75 42.35 -38.4 41.5 -37.95 40.9 -37.1 40.55 -36.15 Q40.45 -34.95 41.2 -34.1 42.1 -33.35 43.3 -33.35 L43.6 -33.35 43.9 -33.45 44.75 -33.75 M44.75 -37.2 L44.65 -37.35 43.7 -37.55 Q42.95 -37.55 42.4 -37.1 41.9 -36.75 41.8 -36.15 41.8 -35.4 42.25 -35.0 42.7 -34.55 43.4 -34.55 L44.3 -34.8 44.45 -34.85 44.6 -35.0 Q45.1 -35.4 45.1 -36.0 45.25 -36.65 44.8 -37.1 L44.75 -37.1 44.75 -37.2 M-38.0 -75.35 L-37.15 -74.85 -37.1 -74.75 Q-36.65 -74.25 -36.55 -73.5 -36.55 -72.8 -36.95 -72.3 L-37.0 -72.2 Q-37.4 -71.9 -37.75 -71.85 L-38.3 -71.75 Q-39.1 -71.75 -39.65 -72.2 -40.25 -72.8 -40.3 -73.5 -40.4 -74.3 -39.85 -74.85 -39.35 -75.45 -38.6 -75.45 L-38.0 -75.35 M-31.75 -75.95 Q-31.75 -75.2 -32.3 -74.7 -32.75 -74.15 -33.55 -74.15 -34.3 -74.15 -34.85 -74.7 -35.45 -75.2 -35.45 -75.95 -35.6 -76.7 -35.0 -77.3 -34.55 -77.75 -33.8 -77.75 -32.95 -77.75 -32.45 -77.3 -31.85 -76.7 -31.75 -75.95 M-30.1 -77.3 L-28.85 -77.75 Q-28.0 -77.75 -27.5 -77.3 -26.9 -76.7 -26.9 -75.95 -26.8 -75.2 -27.35 -74.7 L-27.95 -74.25 -28.55 -74.15 -29.3 -74.25 -29.95 -74.7 Q-30.5 -75.2 -30.55 -75.95 -30.65 -76.7 -30.1 -77.3 M-25.4 -78.9 L-24.65 -63.6 -25.0 -63.15 -36.25 -63.15 -41.15 -67.55 -41.65 -74.75 -37.45 -79.35 -25.75 -79.35 -25.4 -78.9 M-23.2 -71.75 L-23.0 -68.3 -18.2 -66.05 -17.05 -67.35 M-29.8 -72.35 L-29.6 -72.6 -28.55 -72.9 Q-27.7 -72.9 -27.2 -72.35 -26.65 -71.9 -26.6 -71.1 -26.6 -70.4 -27.05 -69.8 -27.55 -69.3 -28.3 -69.3 -29.0 -69.3 -29.45 -69.65 L-29.65 -69.8 Q-30.25 -70.4 -30.25 -71.1 -30.35 -71.9 -29.8 -72.35 M-28.25 -68.1 Q-27.5 -68.1 -26.95 -67.65 -26.45 -67.05 -26.35 -66.35 -26.35 -65.6 -26.8 -65.15 -27.35 -64.5 -28.1 -64.5 -28.75 -64.5 -29.15 -64.95 L-29.35 -65.15 Q-29.95 -65.6 -29.95 -66.35 -30.05 -67.05 -29.5 -67.65 L-29.3 -67.8 -28.25 -68.1 M-23.0 -68.3 L-22.75 -62.9 -23.5 -62.25 M-34.7 -72.35 Q-34.25 -72.9 -33.5 -72.9 -32.65 -72.9 -32.15 -72.35 -31.55 -71.9 -31.55 -71.1 -31.45 -70.4 -32.0 -69.8 -32.45 -69.3 -33.25 -69.3 -34.0 -69.3 -34.55 -69.8 -35.15 -70.4 -35.15 -71.1 -35.2 -71.9 -34.7 -72.35 M-36.8 -69.95 Q-36.25 -69.35 -36.25 -68.7 -36.25 -68.1 -36.55 -67.5 L-36.65 -67.5 Q-37.0 -67.1 -37.45 -66.95 L-37.9 -66.9 Q-38.75 -66.9 -39.25 -67.5 -39.85 -68.0 -39.95 -68.7 -40.0 -69.45 -39.4 -69.95 -39.05 -70.5 -38.2 -70.5 L-37.7 -70.5 -36.8 -69.95 M-31.85 -67.65 Q-31.25 -67.05 -31.15 -66.35 -31.15 -65.6 -31.7 -65.15 -32.15 -64.5 -32.95 -64.5 -33.7 -64.5 -34.25 -65.15 -34.75 -65.6 -34.85 -66.35 -34.9 -67.05 -34.4 -67.65 L-33.2 -68.1 Q-32.35 -68.1 -31.85 -67.65 M-36.25 -47.45 L-36.55 -51.5 -33.4 -54.75 -23.0 -54.75 -23.0 -54.9 -24.35 -56.1 M-23.0 -54.75 L-22.75 -50.0 -20.6 -50.4 -18.2 -57.0 M-15.35 -64.7 L-14.65 -66.6 -8.9 -67.1 M-18.2 -66.05 L-15.35 -64.7 -17.35 -59.15 M-12.35 -62.3 L-14.65 -66.6 M-39.55 -42.45 L-39.25 -42.3 Q-38.8 -41.9 -38.75 -41.25 -38.65 -40.55 -39.1 -40.2 L-39.35 -39.9 Q-39.8 -39.65 -40.25 -39.65 -40.9 -39.65 -41.45 -40.05 -41.95 -40.55 -41.95 -41.25 -42.05 -41.9 -41.6 -42.3 L-40.45 -42.75 -39.55 -42.45 M-39.5 -43.8 L-39.2 -43.7 -39.1 -43.65 -38.35 -43.1 -37.9 -42.65 Q-37.45 -42.05 -37.45 -41.25 -37.3 -40.1 -38.05 -39.2 -38.6 -38.75 -39.25 -38.55 L-40.15 -38.4 Q-41.35 -38.4 -42.25 -39.2 -43.0 -39.95 -43.25 -40.85 L-43.25 -41.25 -43.3 -41.55 -43.3 -41.6 M-45.1 -38.4 L-44.6 -38.6 -44.35 -38.7 -44.0 -38.75 -43.75 -38.75 -42.25 -38.4 -41.6 -37.95 -40.9 -37.1 -40.55 -36.15 Q-40.45 -34.95 -41.3 -34.1 -42.1 -33.35 -43.3 -33.35 L-43.6 -33.35 -43.9 -33.45 -44.75 -33.75 M-44.75 -37.2 L-44.65 -37.35 -43.6 -37.55 Q-42.95 -37.55 -42.5 -37.1 -41.9 -36.75 -41.8 -36.15 -41.75 -35.4 -42.25 -35.0 -42.7 -34.55 -43.4 -34.55 L-44.3 -34.8 -44.45 -34.85 -44.5 -35.0 Q-45.1 -35.4 -45.1 -36.0 -45.25 -36.65 -44.75 -37.1 L-44.65 -37.1 -44.75 -37.2 M-42.35 -30.65 L-42.35 -30.95 -42.4 -31.25 -42.35 -31.8 -41.75 -32.85 -41.3 -33.2 -41.15 -33.3 -40.0 -33.6 -39.7 -33.75 -38.8 -33.5 -38.35 -33.3 -38.15 -33.2 -37.6 -32.85 Q-36.7 -32.1 -36.65 -30.95 L-36.65 -30.2 Q-36.8 -29.6 -37.3 -29.1 -37.7 -28.8 -38.0 -28.65 L-38.35 -28.55 M-41.15 -30.95 Q-41.2 -31.55 -40.7 -32.1 -40.3 -32.55 -39.65 -32.55 L-38.75 -32.25 -38.45 -32.1 Q-38.0 -31.55 -37.9 -30.95 -37.85 -30.6 -38.05 -30.2 L-38.3 -29.9 -38.5 -29.75 -38.95 -29.6 -39.4 -29.55 Q-40.1 -29.55 -40.55 -29.9 L-40.85 -30.2 -41.15 -30.75 -41.15 -30.95 M-5.35 -38.1 L-6.95 -41.9 -21.8 -46.85 -20.75 -44.6 M-10.25 -30.3 L-10.45 -30.8 -13.25 -31.65 -13.45 -32.25 M-21.7 -28.4 L-20.45 -28.7 -18.2 -29.15 -16.25 -28.55 -10.25 -30.3 -9.05 -27.9 -8.45 -26.6 -7.85 -25.65 -7.7 -25.25 -4.6 -24.5 M-16.25 -28.55 L-14.35 -28.05 -13.45 -26.6 -12.35 -26.9 -9.05 -27.9 M-12.35 -26.9 L-10.1 -26.0 -8.45 -26.6 M-14.75 -35.3 L-9.8 -33.75 M-26.05 -41.85 L-29.05 -42.6 -29.3 -45.35 -30.2 -45.75 -29.95 -42.3 -30.95 -41.75 -30.95 -41.6 -29.75 -40.4 -27.4 -40.4 -26.8 -39.9 M-30.05 -30.8 L-29.6 -31.25 -29.3 -31.7 -28.3 -33.75 -28.3 -33.8 Q-29.0 -33.35 -29.9 -33.35 -31.1 -33.35 -32.0 -34.1 -32.95 -34.95 -33.05 -36.0 L-32.8 -37.1 -32.2 -37.95 -31.7 -38.4 -30.5 -38.75 -30.2 -38.75 Q-29.45 -38.75 -28.85 -38.4 L-28.6 -38.3 -29.45 -39.9 -29.75 -40.4 M-28.3 -33.8 L-27.85 -34.1 -27.7 -34.35 -27.5 -34.55 Q-27.05 -35.25 -27.1 -36.0 L-27.5 -37.1 -27.55 -37.35 -27.7 -37.5 -28.1 -37.95 -28.6 -38.3 M-36.05 -43.95 L-35.45 -43.85 -35.15 -43.8 -35.05 -43.8 -34.75 -43.85 -34.4 -43.95 -34.0 -43.95 -32.5 -43.65 -31.85 -43.1 -31.45 -42.65 -31.25 -42.45 -30.95 -41.75 M-30.95 -41.6 L-30.85 -41.25 Q-30.8 -40.1 -31.6 -39.2 -32.45 -38.4 -33.65 -38.4 L-34.75 -38.6 -35.8 -39.2 Q-36.7 -40.1 -36.8 -41.25 -36.85 -42.05 -36.5 -42.65 L-36.1 -43.1 -35.45 -43.65 -35.15 -43.8 M-38.95 -37.95 L-38.35 -38.4 -37.3 -38.75 -37.0 -38.75 -35.6 -38.4 -34.85 -37.95 -34.7 -37.8 -34.25 -37.1 Q-33.85 -36.6 -33.8 -36.0 -33.7 -35.0 -34.45 -34.25 L-34.55 -34.1 Q-35.45 -33.35 -36.65 -33.35 -37.85 -33.35 -38.65 -34.1 L-38.9 -34.25 Q-39.65 -35.0 -39.7 -36.0 L-39.55 -37.1 -39.2 -37.7 -38.95 -37.95 M-35.05 -42.35 L-34.55 -42.65 -33.95 -42.75 -33.4 -42.65 -32.75 -42.3 Q-32.3 -41.9 -32.2 -41.25 -32.15 -40.55 -32.6 -40.05 -33.05 -39.65 -33.7 -39.65 -34.45 -39.65 -34.85 -40.05 L-34.9 -40.05 Q-35.5 -40.55 -35.45 -41.25 -35.6 -41.9 -35.05 -42.3 L-35.05 -42.35 M-31.25 -37.1 L-30.1 -37.55 -29.0 -37.1 Q-28.45 -36.75 -28.4 -36.15 -28.4 -35.4 -28.85 -35.0 -29.3 -34.55 -29.95 -34.55 -30.7 -34.55 -31.15 -35.0 -31.7 -35.4 -31.75 -36.0 -31.85 -36.65 -31.3 -37.1 L-31.25 -37.1 M-34.3 -32.1 Q-33.95 -32.55 -33.25 -32.55 -32.6 -32.55 -32.05 -32.1 -31.6 -31.55 -31.55 -30.95 -31.55 -30.6 -31.7 -30.2 L-31.9 -29.9 Q-32.35 -29.55 -33.05 -29.55 -33.7 -29.55 -34.1 -29.9 L-34.25 -29.9 -34.55 -30.2 -34.85 -30.95 -34.4 -32.0 -34.3 -32.1 M-34.0 -28.55 L-34.85 -28.95 -35.05 -29.15 -35.95 -30.2 -36.05 -30.95 Q-36.1 -32.1 -35.35 -32.85 L-34.85 -33.2 -34.75 -33.3 -34.4 -33.45 -33.65 -33.6 -33.35 -33.75 -31.85 -33.3 -31.75 -33.2 -31.15 -32.85 Q-30.35 -32.1 -30.25 -30.95 L-30.25 -30.8 -30.25 -30.65 M-26.05 -38.1 L-25.85 -33.3 M-30.2 -45.75 L-32.15 -46.35 M-21.7 -13.95 L-25.15 -14.85 M-21.7 -13.95 L-25.4 -13.95 M-20.0 -3.35 L-20.9 -8.1 -24.1 -8.1 -24.7 -3.35 M-27.4 -6.35 L-27.2 -7.7 -25.6 -8.25 -25.4 -10.1 -27.25 -10.7 -27.35 -11.6 M-25.75 -3.35 L-26.3 -4.35 -27.7 -4.1 M-25.4 -10.1 L-25.25 -10.95 -20.15 -10.95 -19.9 -10.05 -17.6 -10.85 -17.65 -12.95 -21.7 -13.95 M-26.3 -4.35 L-25.6 -8.25 M-9.8 -8.25 L-13.45 -17.15 -14.65 -13.35 -11.35 -5.45 M-16.1 -12.5 L-17.65 -12.95 M-13.45 -26.6 L-11.45 -23.4 -11.0 -23.15 -7.85 -25.65 M-11.45 -23.4 L-13.45 -17.15 -23.05 -19.7 -20.45 -28.7 M-17.05 -8.45 L-18.25 -7.85 -17.75 -7.7 -17.05 -4.95 M-19.9 -10.05 L-19.45 -8.25 -18.25 -7.85 M-19.45 -8.25 L-18.5 -4.35 -16.85 -4.05 M-18.5 -4.35 L-18.85 -3.35 M-11.0 -23.15 L-7.7 -21.8 M-14.65 -13.35 L-28.1 -16.8 M-3.55 -24.2 L-4.4 -27.2 M-22.75 -50.0 L-22.55 -44.6 M-21.8 -46.85 L-20.6 -50.4" fill="none" stroke="#000000" stroke-linecap="round" stroke-linejoin="round" stroke-opacity="0.29803923" stroke-width="0.05"/>
  </g>
</svg>
