<svg
  xmlns:xlink="http://www.w3.org/1999/xlink"
  xmlns="http://www.w3.org/2000/svg"
  height="100%"
  width="100%"
  viewbox="0 0 80 80"
  fill="#dddddd">
  <g transform="matrix(1.0, 0.0, 0.0, 1.0, 37.05, 39.5)">
    <path d="M10.95 26.35 L10.95 -12.95 17.0 -12.95 17.0 26.35 10.95 26.35 M-36.55 -23.35 L38.3 -23.35 38.3 -17.3 30.1 -17.3 26.4 38.45 -24.95 38.45 -28.35 -17.3 -36.55 -17.3 -36.55 -23.35 M-15.25 -39.0 L17.0 -39.0 17.0 -25.2 10.95 -25.2 10.95 -32.05 -9.2 -32.05 -9.2 -25.2 -15.25 -25.2 -15.25 -39.0 M-22.25 -17.3 L-19.65 31.5 21.3 31.5 24.05 -17.3 -22.25 -17.3 M3.9 -12.95 L3.9 26.35 -2.15 26.35 -2.15 -12.95 3.9 -12.95 M-15.25 -12.95 L-9.2 -12.95 -9.2 26.35 -15.25 26.35 -15.25 -12.95" fill-rule="evenodd" stroke="none"/>
  </g>
</svg>